<svg width="22" height="24" viewBox="0 0 22 24" fill="none" xmlns="http://www.w3.org/2000/svg">
<g clip-path="url(#clip0_1444_1507)">
<path fill-rule="evenodd" clip-rule="evenodd" d="M2 0C1.44772 0 1 0.447716 1 1V23C1 23.5523 1.44772 24 2 24H20C20.5523 24 21 23.5523 21 23V4L17 0H2Z" fill="#E9F0FA"/>
<path fill-rule="evenodd" clip-rule="evenodd" d="M17 0V4H21L17 0Z" fill="#C2CDDE"/>
</g>
<rect y="10" width="22" height="10" rx="1" fill="#4881F1"/>
<path d="M3.01527 18V12.1818H5.19709C5.64406 12.1818 6.01906 12.2652 6.32209 12.4318C6.62701 12.5985 6.85713 12.8277 7.01243 13.1193C7.16963 13.4091 7.24822 13.7386 7.24822 14.108C7.24822 14.4811 7.16963 14.8125 7.01243 15.1023C6.85523 15.392 6.62322 15.6203 6.31641 15.7869C6.00959 15.9517 5.63175 16.0341 5.18288 16.0341H3.73686V15.1676H5.04084C5.3022 15.1676 5.51622 15.1222 5.68288 15.0312C5.84955 14.9403 5.97266 14.8153 6.0522 14.6562C6.13364 14.4972 6.17436 14.3144 6.17436 14.108C6.17436 13.9015 6.13364 13.7197 6.0522 13.5625C5.97266 13.4053 5.8486 13.2831 5.68004 13.196C5.51338 13.107 5.29841 13.0625 5.03516 13.0625H4.06925V18H3.01527ZM12.945 12.1818V18H12.0075L9.26598 14.0369H9.21768V18H8.16371V12.1818H9.10689L11.8455 16.1477H11.8967V12.1818H12.945ZM17.9911 14.0398C17.9438 13.8864 17.8784 13.7491 17.7951 13.6278C17.7137 13.5047 17.6152 13.3996 17.4996 13.3125C17.386 13.2254 17.2553 13.16 17.1076 13.1165C16.9599 13.071 16.7989 13.0483 16.6246 13.0483C16.3121 13.0483 16.0337 13.1269 15.7894 13.2841C15.5451 13.4413 15.3529 13.6723 15.2127 13.9773C15.0745 14.2803 15.0053 14.6496 15.0053 15.0852C15.0053 15.5246 15.0745 15.8968 15.2127 16.2017C15.351 16.5066 15.5432 16.7386 15.7894 16.8977C16.0356 17.0549 16.3216 17.1335 16.6474 17.1335C16.9428 17.1335 17.1985 17.0767 17.4144 16.9631C17.6322 16.8494 17.7998 16.6884 17.9173 16.4801C18.0347 16.2699 18.0934 16.0237 18.0934 15.7415L18.332 15.7784H16.7525V14.9545H19.1133V15.6534C19.1133 16.1515 19.0072 16.5824 18.7951 16.946C18.583 17.3097 18.2913 17.59 17.9201 17.7869C17.5489 17.982 17.1228 18.0795 16.6417 18.0795C16.1057 18.0795 15.6351 17.9593 15.2298 17.7188C14.8263 17.4763 14.511 17.1326 14.2837 16.6875C14.0584 16.2405 13.9457 15.7102 13.9457 15.0966C13.9457 14.6269 14.012 14.2074 14.1445 13.8381C14.279 13.4688 14.4665 13.1553 14.707 12.8977C14.9476 12.6383 15.2298 12.4413 15.5536 12.3068C15.8775 12.1705 16.2298 12.1023 16.6104 12.1023C16.9324 12.1023 17.2326 12.1496 17.511 12.2443C17.7894 12.3371 18.0366 12.4697 18.2525 12.642C18.4703 12.8144 18.6493 13.0189 18.7894 13.2557C18.9296 13.4924 19.0214 13.7538 19.065 14.0398H17.9911Z" fill="white"/>
<defs>
<clipPath id="clip0_1444_1507">
<rect width="20" height="24" fill="white" transform="translate(1)"/>
</clipPath>
</defs>
</svg>
