<svg width="22" height="24" viewBox="0 0 22 24" fill="none" xmlns="http://www.w3.org/2000/svg">
<g clip-path="url(#clip0_1444_591)">
<path fill-rule="evenodd" clip-rule="evenodd" d="M2 0C1.44772 0 1 0.447716 1 1V23C1 23.5523 1.44772 24 2 24H20C20.5523 24 21 23.5523 21 23V4L17 0H2Z" fill="#E9F0FA"/>
<path fill-rule="evenodd" clip-rule="evenodd" d="M17 0V4H21L17 0Z" fill="#C2CDDE"/>
</g>
<rect y="10" width="22" height="10" rx="1" fill="#0F8105"/>
<path d="M4.82955 12.1818L6.1108 14.3125H6.15625L7.44318 12.1818H8.64489L6.85227 15.0909L8.6733 18H7.4517L6.15625 15.8835H6.1108L4.81534 18H3.59943L5.4375 15.0909L3.62216 12.1818H4.82955ZM9.4723 18V12.1818H10.5263V17.1165H13.0888V18H9.4723ZM17.1655 13.7812C17.139 13.5331 17.0272 13.34 16.8303 13.2017C16.6352 13.0634 16.3814 12.9943 16.0689 12.9943C15.8492 12.9943 15.6607 13.0275 15.5036 13.0938C15.3464 13.16 15.2261 13.25 15.1428 13.3636C15.0594 13.4773 15.0168 13.607 15.0149 13.7528C15.0149 13.8741 15.0424 13.9792 15.0973 14.0682C15.1541 14.1572 15.2308 14.233 15.3274 14.2955C15.424 14.3561 15.531 14.4072 15.6484 14.4489C15.7659 14.4905 15.8842 14.5256 16.0036 14.554L16.549 14.6903C16.7687 14.7415 16.9799 14.8106 17.1825 14.8977C17.3871 14.9848 17.5698 15.0947 17.7308 15.2273C17.8937 15.3598 18.0225 15.5199 18.1172 15.7074C18.2119 15.8949 18.2592 16.1146 18.2592 16.3665C18.2592 16.7074 18.1721 17.0076 17.9979 17.267C17.8236 17.5246 17.5717 17.7263 17.2422 17.8722C16.9145 18.0161 16.5178 18.0881 16.0518 18.0881C15.5992 18.0881 15.2062 18.018 14.8729 17.8778C14.5414 17.7377 14.282 17.5331 14.0945 17.2642C13.9089 16.9953 13.8085 16.6676 13.7933 16.2812H14.8303C14.8454 16.4839 14.9079 16.6525 15.0178 16.7869C15.1276 16.9214 15.2706 17.0218 15.4467 17.0881C15.6248 17.1544 15.8236 17.1875 16.0433 17.1875C16.2725 17.1875 16.4732 17.1534 16.6456 17.0852C16.8198 17.0152 16.9562 16.9186 17.0547 16.7955C17.1532 16.6705 17.2034 16.5246 17.2053 16.358C17.2034 16.2064 17.1589 16.0814 17.0717 15.983C16.9846 15.8826 16.8625 15.7992 16.7053 15.733C16.55 15.6648 16.3681 15.6042 16.1598 15.5511L15.4979 15.3807C15.0187 15.2576 14.6399 15.071 14.3615 14.821C14.085 14.5691 13.9467 14.2348 13.9467 13.8182C13.9467 13.4754 14.0395 13.1752 14.2251 12.9176C14.4126 12.66 14.6674 12.4602 14.9893 12.3182C15.3113 12.1742 15.6759 12.1023 16.0831 12.1023C16.496 12.1023 16.8577 12.1742 17.1683 12.3182C17.4808 12.4602 17.7261 12.6581 17.9041 12.9119C18.0821 13.1638 18.174 13.4536 18.1797 13.7812H17.1655Z" fill="white"/>
<defs>
<clipPath id="clip0_1444_591">
<rect width="20" height="24" fill="white" transform="translate(1)"/>
</clipPath>
</defs>
</svg>
